<svg xmlns="http://www.w3.org/2000/svg" xmlns:xlink="http://www.w3.org/1999/xlink" version="1.1" width="1000" height="1000" viewBox="0 0 1000 1000" xml:space="preserve">
<desc>Created with Fabric.js 3.5.0</desc>
<defs>
</defs>
<rect x="0" y="0" width="100%" height="100%" fill="#ffffff"/>
<g transform="matrix(3.4158 0 0 3.4158 499.9988 499.9989)" id="199368">
<g style="">
		<g transform="matrix(8.2645 0 0 8.2645 -19.0082 19.4216)" id="659852">
<linearGradient id="SVGID_9" gradientUnits="userSpaceOnUse" gradientTransform="matrix(1 0 0 1 0 0)" x1="18.07" y1="11.68" x2="7.07" y2="33.92">
<stop offset="0%" style="stop-color:rgb(2,188,204);stop-opacity: 1"/>
<stop offset="100%" style="stop-color:rgb(96,242,63);stop-opacity: 1"/>
</linearGradient>
<path style="stroke: none; stroke-width: 1; stroke-dasharray: none; stroke-linecap: butt; stroke-dashoffset: 0; stroke-linejoin: miter; stroke-miterlimit: 4; is-custom-font: none; font-file-url: none; fill: url(#SVGID_9); fill-rule: nonzero; opacity: 1;" transform=" translate(-14.3624, -18.85)" d="M 6.3 13.4 c 0 -3.3 1.2 -6.3 3.2 -8.7 A 14.64 14.64 0 0 0 14.8 33 c 6.3 0 11.7 -4 13.8 -9.6 c -2.4 2.1 -5.5 3.3 -8.8 3.3 c -7.5 0.1 -13.5 -5.9 -13.5 -13.3 Z" stroke-linecap="round"/>
</g>
		<g transform="matrix(8.2645 0 0 8.2645 38.7407 -40.083)" id="669993">
<linearGradient id="SVGID_10" gradientUnits="userSpaceOnUse" gradientTransform="matrix(1 0 0 1 0 0)" x1="24.99" y1="3.13" x2="16.71" y2="19.84">
<stop offset="0%" style="stop-color:rgb(2,188,204);stop-opacity: 1"/>
<stop offset="100%" style="stop-color:rgb(96,242,63);stop-opacity: 1"/>
</linearGradient>
<path style="stroke: none; stroke-width: 1; stroke-dasharray: none; stroke-linecap: butt; stroke-dashoffset: 0; stroke-linejoin: miter; stroke-miterlimit: 4; is-custom-font: none; font-file-url: none; fill: url(#SVGID_10); fill-rule: nonzero; opacity: 1;" transform=" translate(-21.35, -11.65)" d="M 19.7 0 C 15.6 0 12 1.8 9.5 4.7 a 14.7 14.7 0 0 1 20 13.6 c 0 1.8 -0.3 3.5 -0.9 5 c 2.8 -2.4 4.6 -6 4.6 -10 C 33.1 6 27.1 0 19.7 0 Z" stroke-linecap="round"/>
</g>
</g>
</g>
</svg>